<svg width="82" height="82" viewBox="0 0 82 82" fill="none" xmlns="http://www.w3.org/2000/svg">
<g filter="url(#filter0_d_5008_7173)">
<rect x="13" y="13" width="56" height="56" rx="28" fill="#111111" shape-rendering="crispEdges"/>
<path d="M51 42.25H31C30.3167 42.25 29.75 41.6833 29.75 41C29.75 40.3167 30.3167 39.75 31 39.75H51C51.6833 39.75 52.25 40.3167 52.25 41C52.25 41.6833 51.6833 42.25 51 42.25Z" fill="white"/>
<path d="M41 52.25C40.3167 52.25 39.75 51.6833 39.75 51V31C39.75 30.3167 40.3167 29.75 41 29.75C41.6833 29.75 42.25 30.3167 42.25 31V51C42.25 51.6833 41.6833 52.25 41 52.25Z" fill="white"/>
</g>
<defs>
<filter id="filter0_d_5008_7173" x="0.7" y="0.7" width="80.6" height="80.6" filterUnits="userSpaceOnUse" color-interpolation-filters="sRGB">
<feFlood flood-opacity="0" result="BackgroundImageFix"/>
<feColorMatrix in="SourceAlpha" type="matrix" values="0 0 0 0 0 0 0 0 0 0 0 0 0 0 0 0 0 0 127 0" result="hardAlpha"/>
<feOffset/>
<feGaussianBlur stdDeviation="6.15"/>
<feComposite in2="hardAlpha" operator="out"/>
<feColorMatrix type="matrix" values="0 0 0 0 1 0 0 0 0 1 0 0 0 0 1 0 0 0 0.5 0"/>
<feBlend mode="normal" in2="BackgroundImageFix" result="effect1_dropShadow_5008_7173"/>
<feBlend mode="normal" in="SourceGraphic" in2="effect1_dropShadow_5008_7173" result="shape"/>
</filter>
</defs>
</svg>
