<svg width="51" height="51" viewBox="0 0 51 51" fill="none" xmlns="http://www.w3.org/2000/svg">
<rect x="0.5" y="0.5" width="50" height="50" rx="25" fill="#111111"/>
<path d="M35.2638 32.3081C34.9107 33.136 34.4748 33.9255 33.9628 34.6644C33.2791 35.6469 32.7189 36.3269 32.2877 36.7044C31.6177 37.3244 30.9011 37.6419 30.1336 37.66C29.5827 37.66 28.9176 37.5019 28.144 37.1812C27.3684 36.8625 26.655 36.7044 26.0023 36.7044C25.3186 36.7044 24.5846 36.8625 23.7998 37.1812C23.0137 37.5019 22.3809 37.6688 21.897 37.6856C21.1606 37.7169 20.4266 37.3906 19.6945 36.7044C19.2267 36.2937 18.6423 35.5894 17.9419 34.5919C17.1899 33.5269 16.572 32.2919 16.0881 30.8831C15.57 29.3619 15.3101 27.8894 15.3101 26.4631C15.3101 24.8294 15.6606 23.4206 16.3623 22.24C16.9138 21.2919 17.6472 20.5437 18.566 19.9944C19.4848 19.445 20.4769 19.1656 21.5452 19.1475C22.1297 19.1475 22.8965 19.33 23.8494 19.6881C24.7993 20.0475 25.4098 20.2294 25.6772 20.2294C25.877 20.2294 26.5551 20.0169 27.7041 19.5919C28.7904 19.1981 29.708 19.0344 30.4587 19.0987C32.4943 19.2644 34.0242 20.0731 35.0411 21.5294C33.2202 22.6406 32.32 24.1969 32.338 26.1937C32.3541 27.7487 32.9143 29.0437 34.0149 30.0706C34.5015 30.5398 35.0692 30.9151 35.6901 31.1781C35.5603 31.5595 35.4185 31.9363 35.2638 32.3081ZM30.5952 13.8C30.5952 15.0194 30.1529 16.1575 29.2719 17.2112C28.2085 18.4631 26.9224 19.1869 25.527 19.0731C25.5083 18.9197 25.499 18.7652 25.4991 18.6106C25.4991 17.4406 26.0048 16.1881 26.9031 15.1644C27.3517 14.6456 27.9218 14.2144 28.613 13.8706C29.3029 13.5319 29.9556 13.3444 30.5698 13.3125C30.5878 13.475 30.5952 13.6381 30.5952 13.8Z" fill="#FFFDFD"/>
</svg>
