<svg width="50" height="50" viewBox="0 0 50 50" fill="none" xmlns="http://www.w3.org/2000/svg">
<rect width="50" height="50" rx="25" fill="#111111"/>
<path d="M34.8811 27.3983H17.9349C16.7769 27.3983 15.8167 26.3099 15.8167 24.9975C15.8167 23.685 16.7769 22.5967 17.9349 22.5967H34.8811C36.0391 22.5967 36.9994 23.685 36.9994 24.9975C36.9994 26.3099 36.0391 27.3983 34.8811 27.3983Z" fill="white"/>
<path d="M23.5848 37C23.0481 37 22.5115 36.7759 22.0879 36.2958L13.6148 26.6926C12.7957 25.7643 12.7957 24.2277 13.6148 23.2994L22.0879 13.6962C22.9069 12.7679 24.2626 12.7679 25.0817 13.6962C25.9008 14.6245 25.9008 16.1611 25.0817 17.0894L18.1055 24.996L25.0817 32.9026C25.9008 33.8309 25.9008 35.3675 25.0817 36.2958C24.658 36.7759 24.1214 37 23.5848 37Z" fill="white"/>
</svg>
