<svg width="35" height="16" viewBox="0 0 35 16" fill="none" xmlns="http://www.w3.org/2000/svg">
<mask id="path-1-outside-1_144_7705" maskUnits="userSpaceOnUse" x="-1" y="-1" width="37" height="18" fill="black">
<rect fill="white" x="-1" y="-1" width="37" height="18"/>
<path d="M13.8534 5.90909H9.84769C9.81928 5.57765 9.74353 5.27699 9.62042 5.0071C9.50205 4.73722 9.33633 4.50521 9.12326 4.31108C8.91493 4.11222 8.66161 3.9607 8.36332 3.85653C8.06502 3.74763 7.72648 3.69318 7.34769 3.69318C6.68481 3.69318 6.12373 3.85417 5.66445 4.17614C5.20991 4.49811 4.86426 4.95975 4.62752 5.56108C4.39551 6.16241 4.27951 6.88447 4.27951 7.72727C4.27951 8.61742 4.39788 9.36316 4.63462 9.96449C4.8761 10.5611 5.22411 11.0109 5.67866 11.3139C6.1332 11.6122 6.68008 11.7614 7.31928 11.7614C7.68387 11.7614 8.01057 11.7164 8.2994 11.6264C8.58822 11.5317 8.83917 11.3968 9.05224 11.2216C9.26531 11.0464 9.43813 10.8357 9.5707 10.5895C9.70801 10.3385 9.80034 10.0568 9.84769 9.74432L13.8534 9.77273C13.806 10.3883 13.6332 11.0156 13.3349 11.6548C13.0366 12.2893 12.6128 12.8764 12.0636 13.4162C11.5191 13.9512 10.8444 14.3821 10.0395 14.7088C9.23453 15.0355 8.2994 15.1989 7.23406 15.1989C5.89883 15.1989 4.70091 14.9124 3.64031 14.3395C2.58443 13.7666 1.74873 12.9238 1.1332 11.8111C0.522408 10.6984 0.21701 9.33712 0.21701 7.72727C0.21701 6.10795 0.52951 4.74432 1.15451 3.63636C1.77951 2.52367 2.62231 1.68324 3.68292 1.11506C4.74353 0.54214 5.92724 0.255681 7.23406 0.255681C8.15262 0.255681 8.99779 0.381155 9.76957 0.632101C10.5413 0.883049 11.2184 1.25 11.8008 1.73295C12.3832 2.21117 12.852 2.80066 13.2071 3.50142C13.5622 4.20218 13.7776 5.00473 13.8534 5.90909ZM14.3741 15H10.1127L14.9139 0.454545H20.3116L25.1127 15H20.8514L17.6696 4.46023H17.5559L14.3741 15ZM13.5787 9.26136H21.59V12.2159H13.5787V9.26136ZM34.8096 5.90909H30.8039C30.7755 5.57765 30.6998 5.27699 30.5767 5.0071C30.4583 4.73722 30.2926 4.50521 30.0795 4.31108C29.8712 4.11222 29.6179 3.9607 29.3196 3.85653C29.0213 3.74763 28.6827 3.69318 28.3039 3.69318C27.6411 3.69318 27.08 3.85417 26.6207 4.17614C26.1662 4.49811 25.8205 4.95975 25.5838 5.56108C25.3518 6.16241 25.2358 6.88447 25.2358 7.72727C25.2358 8.61742 25.3541 9.36316 25.5909 9.96449C25.8324 10.5611 26.1804 11.0109 26.6349 11.3139C27.0895 11.6122 27.6363 11.7614 28.2755 11.7614C28.6401 11.7614 28.9668 11.7164 29.2556 11.6264C29.5445 11.5317 29.7954 11.3968 30.0085 11.2216C30.2216 11.0464 30.3944 10.8357 30.527 10.5895C30.6643 10.3385 30.7566 10.0568 30.8039 9.74432L34.8096 9.77273C34.7623 10.3883 34.5895 11.0156 34.2912 11.6548C33.9929 12.2893 33.5691 12.8764 33.0199 13.4162C32.4753 13.9512 31.8006 14.3821 30.9957 14.7088C30.1908 15.0355 29.2556 15.1989 28.1903 15.1989C26.8551 15.1989 25.6572 14.9124 24.5966 14.3395C23.5407 13.7666 22.705 12.9238 22.0895 11.8111C21.4787 10.6984 21.1733 9.33712 21.1733 7.72727C21.1733 6.10795 21.4858 4.74432 22.1108 3.63636C22.7358 2.52367 23.5786 1.68324 24.6392 1.11506C25.6998 0.54214 26.8835 0.255681 28.1903 0.255681C29.1089 0.255681 29.954 0.381155 30.7258 0.632101C31.4976 0.883049 32.1747 1.25 32.7571 1.73295C33.3395 2.21117 33.8082 2.80066 34.1633 3.50142C34.5184 4.20218 34.7339 5.00473 34.8096 5.90909Z"/>
</mask>
<path d="M13.8534 5.90909H9.84769C9.81928 5.57765 9.74353 5.27699 9.62042 5.0071C9.50205 4.73722 9.33633 4.50521 9.12326 4.31108C8.91493 4.11222 8.66161 3.9607 8.36332 3.85653C8.06502 3.74763 7.72648 3.69318 7.34769 3.69318C6.68481 3.69318 6.12373 3.85417 5.66445 4.17614C5.20991 4.49811 4.86426 4.95975 4.62752 5.56108C4.39551 6.16241 4.27951 6.88447 4.27951 7.72727C4.27951 8.61742 4.39788 9.36316 4.63462 9.96449C4.8761 10.5611 5.22411 11.0109 5.67866 11.3139C6.1332 11.6122 6.68008 11.7614 7.31928 11.7614C7.68387 11.7614 8.01057 11.7164 8.2994 11.6264C8.58822 11.5317 8.83917 11.3968 9.05224 11.2216C9.26531 11.0464 9.43813 10.8357 9.5707 10.5895C9.70801 10.3385 9.80034 10.0568 9.84769 9.74432L13.8534 9.77273C13.806 10.3883 13.6332 11.0156 13.3349 11.6548C13.0366 12.2893 12.6128 12.8764 12.0636 13.4162C11.5191 13.9512 10.8444 14.3821 10.0395 14.7088C9.23453 15.0355 8.2994 15.1989 7.23406 15.1989C5.89883 15.1989 4.70091 14.9124 3.64031 14.3395C2.58443 13.7666 1.74873 12.9238 1.1332 11.8111C0.522408 10.6984 0.21701 9.33712 0.21701 7.72727C0.21701 6.10795 0.52951 4.74432 1.15451 3.63636C1.77951 2.52367 2.62231 1.68324 3.68292 1.11506C4.74353 0.54214 5.92724 0.255681 7.23406 0.255681C8.15262 0.255681 8.99779 0.381155 9.76957 0.632101C10.5413 0.883049 11.2184 1.25 11.8008 1.73295C12.3832 2.21117 12.852 2.80066 13.2071 3.50142C13.5622 4.20218 13.7776 5.00473 13.8534 5.90909ZM14.3741 15H10.1127L14.9139 0.454545H20.3116L25.1127 15H20.8514L17.6696 4.46023H17.5559L14.3741 15ZM13.5787 9.26136H21.59V12.2159H13.5787V9.26136ZM34.8096 5.90909H30.8039C30.7755 5.57765 30.6998 5.27699 30.5767 5.0071C30.4583 4.73722 30.2926 4.50521 30.0795 4.31108C29.8712 4.11222 29.6179 3.9607 29.3196 3.85653C29.0213 3.74763 28.6827 3.69318 28.3039 3.69318C27.6411 3.69318 27.08 3.85417 26.6207 4.17614C26.1662 4.49811 25.8205 4.95975 25.5838 5.56108C25.3518 6.16241 25.2358 6.88447 25.2358 7.72727C25.2358 8.61742 25.3541 9.36316 25.5909 9.96449C25.8324 10.5611 26.1804 11.0109 26.6349 11.3139C27.0895 11.6122 27.6363 11.7614 28.2755 11.7614C28.6401 11.7614 28.9668 11.7164 29.2556 11.6264C29.5445 11.5317 29.7954 11.3968 30.0085 11.2216C30.2216 11.0464 30.3944 10.8357 30.527 10.5895C30.6643 10.3385 30.7566 10.0568 30.8039 9.74432L34.8096 9.77273C34.7623 10.3883 34.5895 11.0156 34.2912 11.6548C33.9929 12.2893 33.5691 12.8764 33.0199 13.4162C32.4753 13.9512 31.8006 14.3821 30.9957 14.7088C30.1908 15.0355 29.2556 15.1989 28.1903 15.1989C26.8551 15.1989 25.6572 14.9124 24.5966 14.3395C23.5407 13.7666 22.705 12.9238 22.0895 11.8111C21.4787 10.6984 21.1733 9.33712 21.1733 7.72727C21.1733 6.10795 21.4858 4.74432 22.1108 3.63636C22.7358 2.52367 23.5786 1.68324 24.6392 1.11506C25.6998 0.54214 26.8835 0.255681 28.1903 0.255681C29.1089 0.255681 29.954 0.381155 30.7258 0.632101C31.4976 0.883049 32.1747 1.25 32.7571 1.73295C33.3395 2.21117 33.8082 2.80066 34.1633 3.50142C34.5184 4.20218 34.7339 5.00473 34.8096 5.90909Z" fill="white"/>
<path d="M13.8534 5.90909V6.90909H14.9406L14.8499 5.82561L13.8534 5.90909ZM9.84769 5.90909L8.85135 5.99449L8.92974 6.90909H9.84769V5.90909ZM9.62042 5.0071L8.70463 5.40876L8.70757 5.41546L8.7106 5.42211L9.62042 5.0071ZM9.12326 4.31108L8.43279 5.03444L8.44119 5.04245L8.44977 5.05028L9.12326 4.31108ZM8.36332 3.85653L8.02034 4.79598L8.03363 4.80063L8.36332 3.85653ZM5.66445 4.17614L5.09042 3.35729L5.08644 3.36011L5.66445 4.17614ZM4.62752 5.56108L3.69702 5.19474L3.69456 5.20112L4.62752 5.56108ZM4.63462 9.96449L3.7041 10.3308L3.70768 10.3397L4.63462 9.96449ZM5.67866 11.3139L5.12394 12.146L5.13 12.15L5.67866 11.3139ZM8.2994 11.6264L8.59678 12.5812L8.60388 12.579L8.61095 12.5767L8.2994 11.6264ZM9.05224 11.2216L9.68734 11.994L9.68734 11.994L9.05224 11.2216ZM9.5707 10.5895L8.69342 10.1095L8.69023 10.1154L9.5707 10.5895ZM9.84769 9.74432L9.85478 8.74434L8.98872 8.7382L8.85898 9.59451L9.84769 9.74432ZM13.8534 9.77273L14.8504 9.84942L14.9327 8.78036L13.8605 8.77275L13.8534 9.77273ZM13.3349 11.6548L14.2399 12.0803L14.2411 12.0777L13.3349 11.6548ZM12.0636 13.4162L12.7645 14.1295L12.7645 14.1294L12.0636 13.4162ZM10.0395 14.7088L9.66337 13.7822L10.0395 14.7088ZM3.64031 14.3395L3.16339 15.2184L3.16504 15.2193L3.64031 14.3395ZM1.1332 11.8111L0.256589 12.2923L0.25817 12.2951L1.1332 11.8111ZM1.15451 3.63636L2.02549 4.12769L2.02638 4.1261L1.15451 3.63636ZM3.68292 1.11506L4.15514 1.99654L4.15819 1.9949L3.68292 1.11506ZM9.76957 0.632101L10.0788 -0.31889H10.0788L9.76957 0.632101ZM11.8008 1.73295L11.1625 2.50272L11.1662 2.50579L11.8008 1.73295ZM13.2071 3.50142L12.3151 3.95345L12.3151 3.95345L13.2071 3.50142ZM13.8534 4.90909H9.84769V6.90909H13.8534V4.90909ZM10.844 5.82369C10.807 5.39196 10.7062 4.97793 10.5302 4.5921L8.7106 5.42211C8.78082 5.57605 8.83153 5.76334 8.85135 5.99449L10.844 5.82369ZM10.5362 4.60544C10.3629 4.21027 10.1157 3.86247 9.79675 3.57188L8.44977 5.05028C8.55697 5.14795 8.64121 5.26416 8.70463 5.40876L10.5362 4.60544ZM9.81374 3.58772C9.4926 3.28118 9.11273 3.05901 8.693 2.91244L8.03363 4.80063C8.2105 4.86239 8.33725 4.94325 8.43279 5.03444L9.81374 3.58772ZM8.70626 2.91718C8.27917 2.76126 7.82148 2.69318 7.34769 2.69318V4.69318C7.63148 4.69318 7.85087 4.73401 8.02038 4.79589L8.70626 2.91718ZM7.34769 2.69318C6.5177 2.69318 5.74675 2.8972 5.09042 3.3573L6.23848 4.99497C6.50072 4.81113 6.85193 4.69318 7.34769 4.69318V2.69318ZM5.08644 3.36011C4.44901 3.81162 3.99335 4.44211 3.69704 5.19475L5.55801 5.92741C5.73518 5.4774 5.97081 5.18459 6.24247 4.99216L5.08644 3.36011ZM3.69456 5.20112C3.40693 5.94659 3.27951 6.79728 3.27951 7.72727H5.27951C5.27951 6.97166 5.3841 6.37822 5.56049 5.92104L3.69456 5.20112ZM3.27951 7.72727C3.27951 8.69871 3.40768 9.57782 3.70414 10.3308L5.56511 9.59816C5.38808 9.14851 5.27951 8.53614 5.27951 7.72727H3.27951ZM3.70768 10.3397C4.01079 11.0886 4.47419 11.7128 5.12396 12.146L6.23336 10.4819C5.97404 10.309 5.74141 10.0336 5.56157 9.5893L3.70768 10.3397ZM5.13 12.15C5.77447 12.5729 6.52005 12.7614 7.31928 12.7614V10.7614C6.84011 10.7614 6.49193 10.6515 6.22731 10.4779L5.13 12.15ZM7.31928 12.7614C7.76473 12.7614 8.1943 12.7065 8.59678 12.5812L8.00201 10.6717C7.82685 10.7262 7.603 10.7614 7.31928 10.7614V12.7614ZM8.61095 12.5767C9.0057 12.4472 9.36908 12.2557 9.68734 11.994L8.41713 10.4492C8.30926 10.5379 8.17074 10.6162 7.98785 10.6762L8.61095 12.5767ZM9.68734 11.994C10.0022 11.7351 10.2578 11.4226 10.4512 11.0636L8.69023 10.1154C8.61841 10.2488 8.52839 10.3577 8.41713 10.4492L9.68734 11.994ZM10.448 11.0695C10.6471 10.7056 10.7734 10.3103 10.8364 9.89412L8.85898 9.59451C8.82733 9.80337 8.76897 9.97144 8.69344 10.1095L10.448 11.0695ZM9.8406 10.7443L13.8463 10.7727L13.8605 8.77275L9.85478 8.74434L9.8406 10.7443ZM12.8563 9.69603C12.8194 10.1758 12.6833 10.6864 12.4287 11.2319L14.2411 12.0777C14.5831 11.3449 14.7926 10.6007 14.8504 9.84942L12.8563 9.69603ZM12.4299 11.2294C12.1868 11.7465 11.8357 12.2381 11.3627 12.703L12.7645 14.1294C13.39 13.5147 13.8864 12.8321 14.2399 12.0803L12.4299 11.2294ZM11.3627 12.7029C10.9235 13.1345 10.3637 13.498 9.66337 13.7822L10.4155 15.6354C11.325 15.2663 12.1147 14.7679 12.7645 14.1295L11.3627 12.7029ZM9.66337 13.7822C9.00161 14.0508 8.1988 14.1989 7.23406 14.1989V16.1989C8.39999 16.1989 9.46745 16.0202 10.4155 15.6354L9.66337 13.7822ZM7.23406 14.1989C6.04656 14.1989 5.01496 13.9455 4.11558 13.4596L3.16504 15.2193C4.38687 15.8793 5.7511 16.1989 7.23406 16.1989V14.1989ZM4.11722 13.4605C3.239 12.984 2.5371 12.283 2.00824 11.327L0.25817 12.2951C0.960367 13.5645 1.92987 14.5491 3.16339 15.2184L4.11722 13.4605ZM2.00981 11.3299C1.49886 10.3991 1.21701 9.21309 1.21701 7.72727H-0.78299C-0.78299 9.46115 -0.454044 10.9977 0.256594 12.2923L2.00981 11.3299ZM1.21701 7.72727C1.21701 6.23404 1.50514 5.05013 2.02549 4.12768L0.283532 3.14504C-0.446116 4.43851 -0.78299 5.98187 -0.78299 7.72727H1.21701ZM2.02638 4.1261C2.56409 3.16882 3.27267 2.46929 4.15514 1.99654L3.2107 0.233576C1.97196 0.897188 0.994934 1.87853 0.282638 3.14663L2.02638 4.1261ZM4.15819 1.9949C5.0607 1.50738 6.07887 1.25568 7.23406 1.25568V-0.744319C5.77561 -0.744319 4.42635 -0.423099 3.20765 0.235217L4.15819 1.9949ZM7.23406 1.25568C8.06125 1.25568 8.80062 1.36858 9.46035 1.58309L10.0788 -0.31889C9.19495 -0.606272 8.24398 -0.744319 7.23406 -0.744319V1.25568ZM9.46035 1.58309C10.1208 1.79783 10.6842 2.10613 11.1625 2.50271L12.4392 0.963196C11.7526 0.393871 10.9619 -0.0317318 10.0788 -0.31889L9.46035 1.58309ZM11.1662 2.50579C11.6369 2.89232 12.0199 3.37094 12.3151 3.95345L14.0991 3.04939C13.684 2.23039 13.1295 1.53002 12.4354 0.960117L11.1662 2.50579ZM12.3151 3.95345C12.6036 4.52282 12.7902 5.19694 12.8569 5.99257L14.8499 5.82561C14.765 4.81253 14.5208 3.88153 14.0991 3.04939L12.3151 3.95345ZM14.3741 15V16H15.1168L15.3314 15.289L14.3741 15ZM10.1127 15L9.16314 14.6866L8.7296 16H10.1127V15ZM14.9139 0.454545V-0.545455H14.1909L13.9643 0.141101L14.9139 0.454545ZM20.3116 0.454545L21.2612 0.141101L21.0346 -0.545455H20.3116V0.454545ZM25.1127 15V16H26.4959L26.0624 14.6866L25.1127 15ZM20.8514 15L19.8941 15.289L20.1087 16H20.8514V15ZM17.6696 4.46023L18.6269 4.17122L18.4123 3.46023H17.6696V4.46023ZM17.5559 4.46023V3.46023H16.8132L16.5986 4.17122L17.5559 4.46023ZM13.5787 9.26136V8.26136H12.5787V9.26136H13.5787ZM21.59 9.26136H22.59V8.26136H21.59V9.26136ZM21.59 12.2159V13.2159H22.59V12.2159H21.59ZM13.5787 12.2159H12.5787V13.2159H13.5787V12.2159ZM14.3741 14H10.1127V16H14.3741V14ZM11.0624 15.3134L15.8635 0.767989L13.9643 0.141101L9.16314 14.6866L11.0624 15.3134ZM14.9139 1.45455H20.3116V-0.545455H14.9139V1.45455ZM19.362 0.767989L24.1631 15.3134L26.0624 14.6866L21.2612 0.141101L19.362 0.767989ZM25.1127 14H20.8514V16H25.1127V14ZM21.8087 14.711L18.6269 4.17122L16.7122 4.74923L19.8941 15.289L21.8087 14.711ZM17.6696 3.46023H17.5559V5.46023H17.6696V3.46023ZM16.5986 4.17122L13.4168 14.711L15.3314 15.289L18.5133 4.74923L16.5986 4.17122ZM13.5787 10.2614H21.59V8.26136H13.5787V10.2614ZM20.59 9.26136V12.2159H22.59V9.26136H20.59ZM21.59 11.2159H13.5787V13.2159H21.59V11.2159ZM14.5787 12.2159V9.26136H12.5787V12.2159H14.5787ZM34.8096 5.90909V6.90909H35.8969L35.8061 5.82561L34.8096 5.90909ZM30.8039 5.90909L29.8076 5.99449L29.886 6.90909H30.8039V5.90909ZM30.5767 5.0071L29.6609 5.40876L29.6638 5.41546L29.6668 5.42211L30.5767 5.0071ZM30.0795 4.31108L29.389 5.03444L29.3974 5.04245L29.406 5.05028L30.0795 4.31108ZM29.3196 3.85653L28.9766 4.79598L28.9899 4.80063L29.3196 3.85653ZM26.6207 4.17614L26.0467 3.35729L26.0427 3.36011L26.6207 4.17614ZM25.5838 5.56108L24.6533 5.19474L24.6508 5.20112L25.5838 5.56108ZM25.5909 9.96449L24.6603 10.3308L24.6639 10.3397L25.5909 9.96449ZM26.6349 11.3139L26.0802 12.146L26.0863 12.15L26.6349 11.3139ZM29.2556 11.6264L29.553 12.5812L29.5601 12.579L29.5672 12.5767L29.2556 11.6264ZM30.0085 11.2216L30.6436 11.994V11.994L30.0085 11.2216ZM30.527 10.5895L29.6497 10.1095L29.6465 10.1154L30.527 10.5895ZM30.8039 9.74432L30.811 8.74434L29.945 8.7382L29.8152 9.59451L30.8039 9.74432ZM34.8096 9.77273L35.8067 9.84942L35.8889 8.78036L34.8167 8.77275L34.8096 9.77273ZM34.2912 11.6548L35.1961 12.0803L35.1973 12.0777L34.2912 11.6548ZM33.0199 13.4162L33.7207 14.1295L33.7208 14.1294L33.0199 13.4162ZM30.9957 14.7088L30.6196 13.7822L30.9957 14.7088ZM24.5966 14.3395L24.1196 15.2184L24.1213 15.2193L24.5966 14.3395ZM22.0895 11.8111L21.2128 12.2923L21.2144 12.2951L22.0895 11.8111ZM22.1108 3.63636L22.9817 4.12769L22.9826 4.1261L22.1108 3.63636ZM24.6392 1.11506L25.1114 1.99654L25.1144 1.9949L24.6392 1.11506ZM30.7258 0.632101L31.035 -0.31889L30.7258 0.632101ZM32.7571 1.73295L32.1187 2.50272L32.1225 2.50579L32.7571 1.73295ZM34.1633 3.50142L33.2713 3.95345V3.95345L34.1633 3.50142ZM34.8096 4.90909H30.8039V6.90909H34.8096V4.90909ZM31.8003 5.82369C31.7633 5.39196 31.6625 4.97793 31.4865 4.5921L29.6668 5.42211C29.7371 5.57605 29.7878 5.76334 29.8076 5.99449L31.8003 5.82369ZM31.4925 4.60544C31.3191 4.21027 31.0719 3.86247 30.753 3.57188L29.406 5.05028C29.5132 5.14795 29.5975 5.26416 29.6609 5.40876L31.4925 4.60544ZM30.77 3.58772C30.4488 3.28118 30.069 3.05901 29.6493 2.91244L28.9899 4.80063C29.1667 4.86239 29.2935 4.94325 29.389 5.03444L30.77 3.58772ZM29.6625 2.91718C29.2354 2.76126 28.7777 2.69318 28.3039 2.69318V4.69318C28.5877 4.69318 28.8071 4.73401 28.9766 4.79589L29.6625 2.91718ZM28.3039 2.69318C27.4739 2.69318 26.703 2.8972 26.0467 3.3573L27.1947 4.99497C27.457 4.81113 27.8082 4.69318 28.3039 4.69318V2.69318ZM26.0427 3.36011C25.4053 3.81162 24.9496 4.44211 24.6533 5.19475L26.5143 5.92741C26.6914 5.4774 26.9271 5.18459 27.1987 4.99216L26.0427 3.36011ZM24.6508 5.20112C24.3632 5.94659 24.2358 6.79728 24.2358 7.72727H26.2358C26.2358 6.97166 26.3403 6.37822 26.5167 5.92104L24.6508 5.20112ZM24.2358 7.72727C24.2358 8.69871 24.3639 9.57782 24.6604 10.3308L26.5214 9.59816C26.3443 9.14851 26.2358 8.53614 26.2358 7.72727H24.2358ZM24.6639 10.3397C24.967 11.0886 25.4304 11.7128 26.0802 12.146L27.1896 10.4819C26.9303 10.309 26.6977 10.0336 26.5178 9.5893L24.6639 10.3397ZM26.0863 12.15C26.7307 12.5729 27.4763 12.7614 28.2755 12.7614V10.7614C27.7964 10.7614 27.4482 10.6515 27.1836 10.4779L26.0863 12.15ZM28.2755 12.7614C28.721 12.7614 29.1505 12.7065 29.553 12.5812L28.9583 10.6717C28.7831 10.7262 28.5593 10.7614 28.2755 10.7614V12.7614ZM29.5672 12.5767C29.962 12.4472 30.3253 12.2557 30.6436 11.994L29.3734 10.4492C29.2655 10.5379 29.127 10.6162 28.9441 10.6762L29.5672 12.5767ZM30.6436 11.994C30.9585 11.7351 31.2141 11.4226 31.4074 11.0636L29.6465 10.1154C29.5747 10.2488 29.4846 10.3577 29.3734 10.4492L30.6436 11.994ZM31.4042 11.0695C31.6033 10.7056 31.7296 10.3103 31.7927 9.89412L29.8152 9.59451C29.7836 9.80337 29.7252 9.97144 29.6497 10.1095L31.4042 11.0695ZM30.7969 10.7443L34.8025 10.7727L34.8167 8.77275L30.811 8.74434L30.7969 10.7443ZM33.8126 9.69603C33.7757 10.1758 33.6396 10.6864 33.385 11.2319L35.1973 12.0777C35.5393 11.3449 35.7489 10.6007 35.8067 9.84942L33.8126 9.69603ZM33.3862 11.2294C33.143 11.7465 32.7919 12.2381 32.3189 12.703L33.7208 14.1294C34.3462 13.5147 34.8427 12.8321 35.1961 12.0803L33.3862 11.2294ZM32.319 12.7029C31.8797 13.1345 31.32 13.498 30.6196 13.7822L31.3718 15.6354C32.2813 15.2663 33.071 14.7679 33.7207 14.1295L32.319 12.7029ZM30.6196 13.7822C29.9579 14.0508 29.1551 14.1989 28.1903 14.1989V16.1989C29.3562 16.1989 30.4237 16.0202 31.3718 15.6354L30.6196 13.7822ZM28.1903 14.1989C27.0028 14.1989 25.9712 13.9455 25.0718 13.4596L24.1213 15.2193C25.3431 15.8793 26.7073 16.1989 28.1903 16.1989V14.1989ZM25.0735 13.4605C24.1952 12.984 23.4934 12.283 22.9645 11.327L21.2144 12.2951C21.9166 13.5645 22.8861 14.5491 24.1196 15.2184L25.0735 13.4605ZM22.9661 11.3299C22.4551 10.3991 22.1733 9.21309 22.1733 7.72727H20.1733C20.1733 9.46115 20.5022 10.9977 21.2128 12.2923L22.9661 11.3299ZM22.1733 7.72727C22.1733 6.23404 22.4614 5.05013 22.9817 4.12768L21.2398 3.14504C20.5101 4.43851 20.1733 5.98187 20.1733 7.72727H22.1733ZM22.9826 4.1261C23.5203 3.16882 24.2289 2.46929 25.1114 1.99654L24.1669 0.233576C22.9282 0.897188 21.9512 1.87853 21.2389 3.14663L22.9826 4.1261ZM25.1144 1.9949C26.017 1.50738 27.0351 1.25568 28.1903 1.25568V-0.744319C26.7319 -0.744319 25.3826 -0.423099 24.1639 0.235217L25.1144 1.9949ZM28.1903 1.25568C29.0175 1.25568 29.7569 1.36858 30.4166 1.58309L31.035 -0.31889C30.1512 -0.606272 29.2002 -0.744319 28.1903 -0.744319V1.25568ZM30.4166 1.58309C31.077 1.79783 31.6405 2.10613 32.1187 2.50271L33.3954 0.963196C32.7089 0.393871 31.9182 -0.0317318 31.035 -0.31889L30.4166 1.58309ZM32.1225 2.50579C32.5932 2.89232 32.9761 3.37094 33.2713 3.95345L35.0553 3.04939C34.6403 2.23039 34.0857 1.53002 33.3917 0.960117L32.1225 2.50579ZM33.2713 3.95345C33.5598 4.52282 33.7465 5.19694 33.8131 5.99257L35.8061 5.82561C35.7213 4.81253 35.477 3.88153 35.0553 3.04939L33.2713 3.95345Z" fill="#111111" mask="url(#path-1-outside-1_144_7705)"/>
</svg>
