<svg width="30" height="30" viewBox="0 0 30 30" fill="none" xmlns="http://www.w3.org/2000/svg">
<path d="M10 7.1875C9.4875 7.1875 9.0625 6.7625 9.0625 6.25V2.5C9.0625 1.9875 9.4875 1.5625 10 1.5625C10.5125 1.5625 10.9375 1.9875 10.9375 2.5V6.25C10.9375 6.7625 10.5125 7.1875 10 7.1875Z" fill="#111111"/>
<path d="M20 7.1875C19.4875 7.1875 19.0625 6.7625 19.0625 6.25V2.5C19.0625 1.9875 19.4875 1.5625 20 1.5625C20.5125 1.5625 20.9375 1.9875 20.9375 2.5V6.25C20.9375 6.7625 20.5125 7.1875 20 7.1875Z" fill="#111111"/>
<path d="M10.625 18.1249C10.4625 18.1249 10.3 18.0874 10.15 18.0249C9.9875 17.9624 9.8625 17.8749 9.7375 17.7624C9.5125 17.5249 9.375 17.2124 9.375 16.8749C9.375 16.7124 9.4125 16.5499 9.475 16.3999C9.5375 16.2499 9.625 16.1124 9.7375 15.9874C9.8625 15.8749 9.9875 15.7874 10.15 15.7249C10.6 15.5374 11.1625 15.6374 11.5125 15.9874C11.7375 16.2249 11.875 16.5499 11.875 16.8749C11.875 16.9499 11.8625 17.0374 11.85 17.1249C11.8375 17.1999 11.8125 17.2749 11.775 17.3499C11.75 17.4249 11.7125 17.4999 11.6625 17.5749C11.625 17.6374 11.5625 17.6999 11.5125 17.7624C11.275 17.9874 10.95 18.1249 10.625 18.1249Z" fill="#111111"/>
<path d="M15 18.1251C14.8375 18.1251 14.675 18.0876 14.525 18.0251C14.3625 17.9626 14.2375 17.8751 14.1125 17.7626C13.8875 17.5251 13.75 17.2126 13.75 16.8751C13.75 16.7126 13.7875 16.5501 13.85 16.4001C13.9125 16.2501 14 16.1126 14.1125 15.9876C14.2375 15.8751 14.3625 15.7876 14.525 15.7251C14.975 15.5251 15.5375 15.6376 15.8875 15.9876C16.1125 16.2251 16.25 16.5501 16.25 16.8751C16.25 16.9501 16.2375 17.0376 16.225 17.1251C16.2125 17.2001 16.1875 17.2751 16.15 17.3501C16.125 17.4251 16.0875 17.5001 16.0375 17.5751C16 17.6376 15.9375 17.7001 15.8875 17.7626C15.65 17.9876 15.325 18.1251 15 18.1251Z" fill="#111111"/>
<path d="M19.375 18.1251C19.2125 18.1251 19.05 18.0876 18.9 18.0251C18.7375 17.9626 18.6125 17.8751 18.4875 17.7626C18.4375 17.7001 18.3875 17.6376 18.3375 17.5751C18.2875 17.5001 18.25 17.4251 18.225 17.3501C18.1875 17.2751 18.1625 17.2001 18.15 17.1251C18.1375 17.0376 18.125 16.9501 18.125 16.8751C18.125 16.5501 18.2625 16.2251 18.4875 15.9876C18.6125 15.8751 18.7375 15.7876 18.9 15.7251C19.3625 15.5251 19.9125 15.6376 20.2625 15.9876C20.4875 16.2251 20.625 16.5501 20.625 16.8751C20.625 16.9501 20.6125 17.0376 20.6 17.1251C20.5875 17.2001 20.5625 17.2751 20.525 17.3501C20.5 17.4251 20.4625 17.5001 20.4125 17.5751C20.375 17.6376 20.3125 17.7001 20.2625 17.7626C20.025 17.9876 19.7 18.1251 19.375 18.1251Z" fill="#111111"/>
<path d="M10.625 22.5C10.4625 22.5 10.3 22.4625 10.15 22.4C10 22.3375 9.8625 22.25 9.7375 22.1375C9.5125 21.9 9.375 21.575 9.375 21.25C9.375 21.0875 9.4125 20.925 9.475 20.775C9.5375 20.6125 9.625 20.475 9.7375 20.3625C10.2 19.9 11.05 19.9 11.5125 20.3625C11.7375 20.6 11.875 20.925 11.875 21.25C11.875 21.575 11.7375 21.9 11.5125 22.1375C11.275 22.3625 10.95 22.5 10.625 22.5Z" fill="#111111"/>
<path d="M15 22.5C14.675 22.5 14.35 22.3625 14.1125 22.1375C13.8875 21.9 13.75 21.575 13.75 21.25C13.75 21.0875 13.7875 20.925 13.85 20.775C13.9125 20.6125 14 20.475 14.1125 20.3625C14.575 19.9 15.425 19.9 15.8875 20.3625C16 20.475 16.0875 20.6125 16.15 20.775C16.2125 20.925 16.25 21.0875 16.25 21.25C16.25 21.575 16.1125 21.9 15.8875 22.1375C15.65 22.3625 15.325 22.5 15 22.5Z" fill="#111111"/>
<path d="M19.375 22.5001C19.05 22.5001 18.725 22.3626 18.4875 22.1376C18.375 22.0251 18.2875 21.8876 18.225 21.7251C18.1625 21.5751 18.125 21.4126 18.125 21.2501C18.125 21.0876 18.1625 20.9251 18.225 20.7751C18.2875 20.6126 18.375 20.4751 18.4875 20.3626C18.775 20.0751 19.2125 19.9376 19.6125 20.0251C19.7 20.0376 19.775 20.0626 19.85 20.1001C19.925 20.1251 20 20.1627 20.075 20.2127C20.1375 20.2502 20.2 20.3126 20.2625 20.3626C20.4875 20.6001 20.625 20.9251 20.625 21.2501C20.625 21.5751 20.4875 21.9001 20.2625 22.1376C20.025 22.3626 19.7 22.5001 19.375 22.5001Z" fill="#111111"/>
<path d="M25.625 12.2998H4.375C3.8625 12.2998 3.4375 11.8748 3.4375 11.3623C3.4375 10.8498 3.8625 10.4248 4.375 10.4248H25.625C26.1375 10.4248 26.5625 10.8498 26.5625 11.3623C26.5625 11.8748 26.1375 12.2998 25.625 12.2998Z" fill="#111111"/>
<path d="M20 28.4375H10C5.4375 28.4375 2.8125 25.8125 2.8125 21.25V10.625C2.8125 6.0625 5.4375 3.4375 10 3.4375H20C24.5625 3.4375 27.1875 6.0625 27.1875 10.625V21.25C27.1875 25.8125 24.5625 28.4375 20 28.4375ZM10 5.3125C6.425 5.3125 4.6875 7.05 4.6875 10.625V21.25C4.6875 24.825 6.425 26.5625 10 26.5625H20C23.575 26.5625 25.3125 24.825 25.3125 21.25V10.625C25.3125 7.05 23.575 5.3125 20 5.3125H10Z" fill="#111111"/>
</svg>
