<svg width="30" height="30" viewBox="0 0 30 30" fill="none" xmlns="http://www.w3.org/2000/svg">
<g clip-path="url(#clip0_144_7718)">
<path d="M15.0005 28.4375C7.58799 28.4375 1.56299 22.4125 1.56299 15C1.56299 7.5875 7.58799 1.5625 15.0005 1.5625C22.413 1.5625 28.438 7.5875 28.438 15C28.438 22.4125 22.413 28.4375 15.0005 28.4375ZM15.0005 3.4375C8.62549 3.4375 3.43799 8.625 3.43799 15C3.43799 21.375 8.62549 26.5625 15.0005 26.5625C21.3755 26.5625 26.563 21.375 26.563 15C26.563 8.625 21.3755 3.4375 15.0005 3.4375Z" fill="#111111"/>
<path d="M19.6378 19.9122C19.4753 19.9122 19.3128 19.8747 19.1628 19.7747L15.2878 17.4622C14.3253 16.8872 13.6128 15.6247 13.6128 14.5122V9.38721C13.6128 8.87471 14.0378 8.44971 14.5503 8.44971C15.0628 8.44971 15.4878 8.87471 15.4878 9.38721V14.5122C15.4878 14.9622 15.8628 15.6247 16.2503 15.8497L20.1253 18.1622C20.5753 18.4247 20.7128 18.9997 20.4503 19.4497C20.2628 19.7497 19.9503 19.9122 19.6378 19.9122Z" fill="#111111"/>
</g>
<defs>
<clipPath id="clip0_144_7718">
<rect width="30" height="30" fill="white"/>
</clipPath>
</defs>
</svg>
