<svg width="35" height="35" viewBox="0 0 35 35" fill="none" xmlns="http://www.w3.org/2000/svg">
<path d="M8.80469 26.5234C8.53125 26.4688 8.3125 26.4141 8.03906 26.3047C7.76562 26.1953 7.54688 26.1406 7.32812 26.0313C6.83594 25.8125 6.39844 25.5391 5.96094 25.2109C5.08594 24.6094 4.375 23.7891 3.82812 22.8047C3.28125 21.875 2.95313 20.7813 2.89844 19.7422C2.84375 19.1953 2.89844 18.7031 2.95312 18.1563C3.00781 17.8828 3.0625 17.6641 3.11719 17.3906C3.17188 17.1172 3.28125 16.8984 3.33594 16.625L3.39062 17.3906C3.39062 17.6641 3.44531 17.8828 3.5 18.1563C3.55469 18.6484 3.66406 19.1406 3.77344 19.5781C3.99219 20.5078 4.32031 21.3828 4.8125 22.2031C5.30469 23.0234 5.85156 23.7891 6.5625 24.5C6.89062 24.8281 7.27344 25.1563 7.65625 25.4844C7.82031 25.6484 8.03906 25.8125 8.25781 25.9766L8.80469 26.5234ZM8.64062 28.4922C8.47656 28.6016 8.25781 28.6563 8.03906 28.7109C7.82031 28.7656 7.65625 28.8203 7.4375 28.8203C7.05469 28.875 6.61719 28.9297 6.17969 28.875C5.35938 28.8203 4.48438 28.6016 3.77344 28.2188C3.00781 27.8359 2.35156 27.2344 1.91406 26.5234C1.69531 26.1953 1.47656 25.8125 1.3125 25.4297C1.25781 25.2656 1.20312 25.0469 1.14844 24.8281C1.14844 24.6641 1.09375 24.5 1.09375 24.2813C1.25781 24.4453 1.36719 24.6094 1.47656 24.7188C1.64063 24.8828 1.75 25.0469 1.85938 25.1563C2.13281 25.4297 2.35156 25.7031 2.625 25.9219C3.17188 26.4141 3.71875 26.8516 4.375 27.1797C4.97656 27.5078 5.6875 27.7813 6.34375 28C6.67188 28.1094 7.05469 28.1641 7.4375 28.2734C7.60156 28.3281 7.82031 28.3281 7.98438 28.3828C8.25781 28.4375 8.42188 28.4375 8.64062 28.4922ZM21 1.91406C21.2734 1.96875 21.4922 2.07813 21.7656 2.1875C22.0391 2.29688 22.2578 2.40625 22.4766 2.51563C22.9688 2.78906 23.4062 3.0625 23.8438 3.39063C24.7188 4.04688 25.4297 4.92188 25.9219 5.90625C26.4141 6.89063 26.6875 7.98438 26.6875 9.02344C26.6875 9.57031 26.6328 10.0625 26.5234 10.6094C26.4688 10.8828 26.4141 11.1016 26.3047 11.375C26.1953 11.6484 26.1406 11.8672 26.0312 12.0859L25.9766 11.3203C25.9766 11.0469 25.9766 10.8281 25.9219 10.5547L25.7578 9.07813C25.5938 8.14844 25.2656 7.21875 24.8281 6.34375C24.3906 5.46875 23.8438 4.70313 23.1875 3.99219C22.8594 3.60938 22.4766 3.28125 22.1484 2.89844C21.9844 2.73438 21.7656 2.57031 21.5469 2.40625L21 1.91406ZM25.7578 1.69531C25.9766 1.75 26.1406 1.80469 26.3047 1.91406C26.4688 1.96875 26.6875 2.07813 26.8516 2.1875C27.1797 2.40625 27.5078 2.625 27.8359 2.89844C28.4375 3.44531 28.9297 4.10156 29.2031 4.86719C29.5312 5.63281 29.6406 6.45313 29.5312 7.27344C29.4766 7.65625 29.3672 8.03906 29.2578 8.42188C29.2031 8.58594 29.0938 8.80469 29.0391 8.96875C28.9297 9.13281 28.875 9.29688 28.7109 9.46094V8.36719C28.7109 7.98438 28.6562 7.65625 28.6562 7.32812C28.5469 6.61719 28.4375 5.96094 28.1641 5.35938C27.8906 4.70313 27.5625 4.15625 27.1797 3.55469C26.9609 3.28125 26.7422 2.95313 26.5234 2.67969C26.4141 2.51563 26.3047 2.40625 26.1406 2.24219C26.0312 1.96875 25.8672 1.80469 25.7578 1.69531Z" fill="#42ADE2"/>
<path d="M5.46877 9.84373C4.37502 10.3359 3.99221 11.6484 4.48439 12.7422L11.375 27.125L15.2031 25.3203L8.31252 10.8828C7.82033 9.78905 6.56252 9.29686 5.46877 9.84373ZM23.5703 21.2734L27.6172 19.3594L19.7422 2.95311C19.1953 1.85936 17.8828 1.36717 16.7344 1.91405C15.6406 2.46092 15.1485 3.77342 15.6953 4.92186L23.5703 21.2734Z" fill="#FFDD67"/>
<path d="M16.7891 1.85915C16.6797 1.91384 16.5703 1.96853 16.4609 2.0779C17.5 1.80447 18.5938 2.29665 19.0859 3.28103L26.9609 19.6873L27.6719 19.3592L19.7969 2.9529C19.25 1.80447 17.9375 1.31228 16.7891 1.85915Z" fill="#EBA352"/>
<path d="M15.2031 25.2657L19.4141 23.2423L11.375 6.50793C10.8281 5.3595 9.40627 4.81262 8.25783 5.3595C7.1094 5.90637 6.61721 7.32825 7.16408 8.47669L15.2031 25.2657Z" fill="#FFDD67"/>
<path d="M8.25781 5.41415C8.14844 5.46884 8.03906 5.52353 7.92969 5.6329C8.96875 5.35947 10.1719 5.85165 10.6641 6.89072L15.6406 17.336L16.8437 18.047L11.375 6.56259C10.8281 5.35947 9.46094 4.86728 8.25781 5.41415Z" fill="#EBA352"/>
<path d="M18.7578 21.9298L22.9688 19.9064L14.9297 3.17201C14.3828 2.02357 12.961 1.4767 11.8125 2.07826C10.6641 2.62514 10.1719 4.04701 10.7188 5.19545L18.7578 21.9298Z" fill="#FFDD67"/>
<path d="M11.8125 2.02353C11.7031 2.07822 11.5938 2.18759 11.4844 2.24228C12.5234 1.96884 13.7266 2.46103 14.2188 3.50009L19.8516 15.3126L21.0547 16.0235L14.9297 3.17197C14.3828 1.96884 12.9609 1.47665 11.8125 2.02353ZM5.46875 9.84384C5.35938 9.89853 5.25 9.95321 5.14062 10.0626C6.125 9.78915 7.16406 10.2813 7.60156 11.2657L11.7031 19.8517L12.9063 20.5626L8.3125 10.9376C7.82031 9.78915 6.5625 9.29697 5.46875 9.84384Z" fill="#EBA352"/>
<path d="M33.2499 8.20334C31.7734 7.05491 29.3671 8.31272 28.164 12.2502C27.3437 14.9846 27.2343 15.8049 25.4843 16.6252L24.4999 14.6018C24.4999 14.6018 8.96869 22.094 9.57026 23.2971C9.57026 23.2971 11.4296 29.094 14.6015 31.7737C19.3046 35.8205 30.2968 31.5002 30.789 21.0549C31.0624 14.9846 34.8359 9.46116 33.2499 8.20334Z" fill="#FFDD67"/>
<path d="M33.25 8.20312C32.9766 7.98437 32.6484 7.875 32.3203 7.82031C32.375 7.875 32.4844 7.875 32.5391 7.92969C34.1797 9.1875 32.4844 12.0859 31.5547 14.7109C30.7891 16.7891 30.1328 18.9219 30.2422 21C30.6797 30.0781 21.5469 34.3984 16.0781 32.7578C21.4375 35 31.3906 30.7344 30.9531 21.2734C30.8437 19.1953 31.4453 17.1719 32.2656 14.9844C33.1406 12.3594 34.8359 9.46094 33.25 8.20312Z" fill="#EBA352"/>
<path d="M25.9766 16.4062C22.586 16.7891 17.6094 21.6562 21.1094 26.9609C18.5391 21.6016 22.75 17.9922 25.4297 16.7344C25.7032 16.5156 25.9766 16.4062 25.9766 16.4062Z" fill="#EBA352"/>
</svg>
