<svg width="51" height="51" viewBox="0 0 51 51" fill="none" xmlns="http://www.w3.org/2000/svg">
<rect x="0.5" y="0.5" width="50" height="50" rx="25" fill="#111111"/>
<path d="M36.128 23.4596H35.2549V23.4163H25.4999V27.583H31.6255C30.7318 30.0085 28.3304 31.7497 25.4999 31.7497C21.9084 31.7497 18.9965 28.9512 18.9965 25.4997C18.9965 22.0481 21.9084 19.2497 25.4999 19.2497C27.1577 19.2497 28.6659 19.8507 29.8143 20.8325L32.8801 17.8861C30.9443 16.1523 28.3548 15.083 25.4999 15.083C19.514 15.083 14.6609 19.7471 14.6609 25.4997C14.6609 31.2523 19.514 35.9163 25.4999 35.9163C31.4857 35.9163 36.3388 31.2523 36.3388 25.4997C36.3388 24.8012 36.264 24.1195 36.128 23.4596Z" fill="#FFC107"/>
<path d="M15.9106 20.6512L19.4718 23.1611C20.4354 20.8684 22.769 19.2497 25.4999 19.2497C27.1577 19.2497 28.6659 19.8507 29.8143 20.8325L32.8801 17.8861C30.9443 16.1523 28.3549 15.083 25.4999 15.083C21.3366 15.083 17.7262 17.3419 15.9106 20.6512Z" fill="#FF3D00"/>
<path d="M25.5 35.9165C28.2997 35.9165 30.8436 34.8868 32.767 33.2124L29.4123 30.4842C28.2875 31.3063 26.9131 31.7509 25.5 31.7499C22.6808 31.7499 20.287 30.0223 19.3852 27.6113L15.8506 30.2285C17.6444 33.602 21.2874 35.9165 25.5 35.9165Z" fill="#4CAF50"/>
<path d="M36.1281 23.4602H35.2551V23.417H25.5V27.5837H31.6256C31.1982 28.738 30.4281 29.7468 29.4107 30.4852L29.4123 30.4842L32.767 33.2123C32.5296 33.4196 36.339 30.7087 36.339 25.5003C36.339 24.8019 36.2642 24.1201 36.1281 23.4602Z" fill="#1976D2"/>
</svg>
