<svg width="20" height="21" viewBox="0 0 20 21" fill="none" xmlns="http://www.w3.org/2000/svg">
<path d="M8.99166 13.1416C8.825 13.1416 8.66666 13.0749 8.55 12.9582L6.53333 10.9416C6.29166 10.6999 6.29166 10.2999 6.53333 10.0582C6.775 9.81657 7.175 9.81657 7.41666 10.0582L8.99166 11.6332L12.575 8.0499C12.8167 7.80824 13.2167 7.80824 13.4583 8.0499C13.7 8.29157 13.7 8.69157 13.4583 8.93324L9.43333 12.9582C9.31666 13.0749 9.15833 13.1416 8.99166 13.1416Z" fill="#04FF3B"/>
<path d="M10 19.4582C9.475 19.4582 8.95 19.2832 8.54167 18.9332L7.225 17.7998C7.09167 17.6832 6.75834 17.5665 6.58334 17.5665H5.15C3.91667 17.5665 2.91667 16.5665 2.91667 15.3332V13.9082C2.91667 13.7332 2.8 13.4082 2.68334 13.2748L1.55834 11.9498C0.875004 11.1415 0.875004 9.8665 1.55834 9.05817L2.68334 7.73317C2.8 7.59984 2.91667 7.27484 2.91667 7.09984V5.6665C2.91667 4.43317 3.91667 3.43317 5.15 3.43317H6.59167C6.76667 3.43317 7.1 3.30817 7.23334 3.19984L8.55 2.0665C9.36667 1.3665 10.6417 1.3665 11.4583 2.0665L12.775 3.19984C12.9083 3.3165 13.2417 3.43317 13.4167 3.43317H14.8333C16.0667 3.43317 17.0667 4.43317 17.0667 5.6665V7.08317C17.0667 7.25817 17.1917 7.5915 17.3083 7.72484L18.4417 9.0415C19.1417 9.85817 19.1417 11.1332 18.4417 11.9498L17.3083 13.2665C17.1917 13.3998 17.0667 13.7332 17.0667 13.9082V15.3248C17.0667 16.5582 16.0667 17.5582 14.8333 17.5582H13.4167C13.2417 17.5582 12.9083 17.6832 12.775 17.7915L11.4583 18.9248C11.05 19.2832 10.525 19.4582 10 19.4582ZM5.15 4.68317C4.60834 4.68317 4.16667 5.12484 4.16667 5.6665V7.0915C4.16667 7.5665 3.94167 8.17484 3.63334 8.53317L2.50834 9.85817C2.21667 10.1998 2.21667 10.7915 2.50834 11.1332L3.63334 12.4582C3.94167 12.8248 4.16667 13.4248 4.16667 13.8998V15.3248C4.16667 15.8665 4.60834 16.3082 5.15 16.3082H6.59167C7.075 16.3082 7.68334 16.5332 8.05 16.8498L9.36667 17.9832C9.70834 18.2748 10.3083 18.2748 10.65 17.9832L11.9667 16.8498C12.3333 16.5415 12.9417 16.3082 13.425 16.3082H14.8417C15.3833 16.3082 15.825 15.8665 15.825 15.3248V13.9082C15.825 13.4248 16.05 12.8165 16.3667 12.4498L17.5 11.1332C17.7917 10.7915 17.7917 10.1915 17.5 9.84984L16.3667 8.53317C16.05 8.1665 15.825 7.55817 15.825 7.07484V5.6665C15.825 5.12484 15.3833 4.68317 14.8417 4.68317H13.425C12.9417 4.68317 12.3333 4.45817 11.9667 4.1415L10.65 3.00817C10.3083 2.7165 9.70834 2.7165 9.36667 3.00817L8.05 4.14984C7.68334 4.45817 7.06667 4.68317 6.59167 4.68317H5.15Z" fill="#04FF3B"/>
</svg>
