<svg width="30" height="30" viewBox="0 0 30 30" fill="none" xmlns="http://www.w3.org/2000/svg">
<path d="M15 17.7123C12.3375 17.7123 10.1625 15.5498 10.1625 12.8748C10.1625 10.1998 12.3375 8.0498 15 8.0498C17.6625 8.0498 19.8375 10.2123 19.8375 12.8873C19.8375 15.5623 17.6625 17.7123 15 17.7123ZM15 9.9248C13.375 9.9248 12.0375 11.2498 12.0375 12.8873C12.0375 14.5248 13.3625 15.8498 15 15.8498C16.6375 15.8498 17.9625 14.5248 17.9625 12.8873C17.9625 11.2498 16.625 9.9248 15 9.9248Z" fill="#111111"/>
<path d="M15 28.45C13.15 28.45 11.2875 27.75 9.83751 26.3625C6.15001 22.8125 2.07501 17.15 3.61251 10.4125C5.00001 4.3 10.3375 1.5625 15 1.5625C15 1.5625 15 1.5625 15.0125 1.5625C19.675 1.5625 25.0125 4.3 26.4 10.425C27.925 17.1625 23.85 22.8125 20.1625 26.3625C18.7125 27.75 16.85 28.45 15 28.45ZM15 3.4375C11.3625 3.4375 6.68751 5.375 5.45001 10.825C4.10001 16.7125 7.80001 21.7875 11.15 25C13.3125 27.0875 16.7 27.0875 18.8625 25C22.2 21.7875 25.9 16.7125 24.575 10.825C23.325 5.375 18.6375 3.4375 15 3.4375Z" fill="#111111"/>
</svg>
