<svg width="25" height="26" viewBox="0 0 25 26" fill="none" xmlns="http://www.w3.org/2000/svg">
<g clip-path="url(#clip0_1_1804)">
<path d="M24.6309 9.59777C24.6309 9.85166 24.5294 10.0548 24.2755 10.3087L18.9947 15.4372L20.2641 22.6983C20.2641 22.7491 20.2641 22.8507 20.2641 23.003C20.2641 23.2061 20.2133 23.3584 20.1118 23.5108C20.0102 23.6631 19.8579 23.7139 19.6548 23.7139C19.5024 23.7139 19.2993 23.6631 19.0962 23.5615L12.5967 20.1087L6.04645 23.5615C5.84334 23.6631 5.64023 23.7139 5.4879 23.7139C5.28479 23.7139 5.13245 23.6631 5.0309 23.5108C4.92935 23.3584 4.87857 23.2061 4.87857 23.003C4.87857 22.9522 4.87857 22.8507 4.92935 22.6983L6.148 15.4372L0.86716 10.3087C0.613273 10.0548 0.511719 9.80088 0.511719 9.59777C0.511719 9.24233 0.765605 9.03922 1.32416 8.93767L8.58531 7.87135L11.8858 1.27029C12.0382 0.914854 12.2921 0.711744 12.5967 0.711744C12.8506 0.711744 13.1045 0.914854 13.3076 1.27029L16.5574 7.87135L23.8185 8.93767C24.3771 9.03922 24.6309 9.24233 24.6309 9.59777Z" fill="#E8C400"/>
</g>
<defs>
<clipPath id="clip0_1_1804">
<rect width="24.17" height="26" fill="white" transform="matrix(1 0 0 -1 0.511719 26)"/>
</clipPath>
</defs>
</svg>
