<svg width="30" height="30" viewBox="0 0 30 30" fill="none" xmlns="http://www.w3.org/2000/svg">
<path d="M22.075 28.3374C21.4125 28.3374 20.5625 28.1249 19.5 27.4999L15.7625 25.2874C15.375 25.0624 14.625 25.0624 14.25 25.2874L10.5 27.4999C8.2875 28.8124 6.9875 28.2874 6.4 27.8624C5.825 27.4374 4.925 26.3499 5.5125 23.8499L6.4 20.0124C6.5 19.6124 6.3 18.9249 6 18.6249L2.9 15.5249C1.35 13.9749 1.475 12.6499 1.6875 11.9999C1.9 11.3499 2.575 10.1999 4.725 9.8374L8.7125 9.1749C9.0875 9.1124 9.625 8.7124 9.7875 8.3749L12 3.9624C13 1.9499 14.3125 1.6499 15 1.6499C15.6875 1.6499 17 1.9499 18 3.9624L20.2 8.3624C20.375 8.6999 20.9125 9.0999 21.2875 9.1624L25.275 9.8249C27.4375 10.1874 28.1125 11.3374 28.3125 11.9874C28.5125 12.6374 28.6375 13.9624 27.1 15.5124L24 18.6249C23.7 18.9249 23.5125 19.5999 23.6 20.0124L24.4875 23.8499C25.0625 26.3499 24.175 27.4374 23.6 27.8624C23.2875 28.0874 22.7875 28.3374 22.075 28.3374ZM15 23.2374C15.6125 23.2374 16.225 23.3874 16.7125 23.6749L20.45 25.8874C21.5375 26.5374 22.225 26.5374 22.4875 26.3499C22.75 26.1624 22.9375 25.4999 22.6625 24.2749L21.775 20.4374C21.5375 19.3999 21.925 18.0624 22.675 17.2999L25.775 14.1999C26.3875 13.5874 26.6625 12.9874 26.5375 12.5749C26.4 12.1624 25.825 11.8249 24.975 11.6874L20.9875 11.0249C20.025 10.8624 18.975 10.0874 18.5375 9.2124L16.3375 4.8124C15.9375 4.0124 15.4375 3.5374 15 3.5374C14.5625 3.5374 14.0625 4.0124 13.675 4.8124L11.4625 9.2124C11.025 10.0874 9.975 10.8624 9.0125 11.0249L5.0375 11.6874C4.1875 11.8249 3.6125 12.1624 3.475 12.5749C3.3375 12.9874 3.625 13.5999 4.2375 14.1999L7.3375 17.2999C8.0875 18.0499 8.475 19.3999 8.2375 20.4374L7.35 24.2749C7.0625 25.5124 7.2625 26.1624 7.525 26.3499C7.7875 26.5374 8.4625 26.5249 9.5625 25.8874L13.3 23.6749C13.775 23.3874 14.3875 23.2374 15 23.2374Z" fill="#292D32"/>
</svg>
