<svg width="20" height="21" viewBox="0 0 20 21" fill="none" xmlns="http://www.w3.org/2000/svg">
<path d="M8.9917 13.1421C8.82503 13.1421 8.6667 13.0754 8.55003 12.9587L6.53336 10.9421C6.2917 10.7004 6.2917 10.3004 6.53336 10.0587C6.77503 9.81706 7.17503 9.81706 7.41669 10.0587L8.9917 11.6337L12.575 8.05039C12.8167 7.80872 13.2167 7.80872 13.4584 8.05039C13.7 8.29206 13.7 8.69206 13.4584 8.93372L9.43336 12.9587C9.31669 13.0754 9.15836 13.1421 8.9917 13.1421Z" fill="#04FF3B"/>
<path d="M10 19.4587C9.475 19.4587 8.95 19.2837 8.54167 18.9337L7.225 17.8003C7.09167 17.6837 6.75834 17.567 6.58334 17.567H5.15C3.91667 17.567 2.91667 16.567 2.91667 15.3337V13.9087C2.91667 13.7337 2.8 13.4087 2.68334 13.2753L1.55834 11.9503C0.875004 11.142 0.875004 9.86699 1.55834 9.05866L2.68334 7.73366C2.8 7.60033 2.91667 7.27533 2.91667 7.10033V5.66699C2.91667 4.43366 3.91667 3.43366 5.15 3.43366H6.59167C6.76667 3.43366 7.1 3.30866 7.23334 3.20033L8.55 2.06699C9.36667 1.36699 10.6417 1.36699 11.4583 2.06699L12.775 3.20033C12.9083 3.31699 13.2417 3.43366 13.4167 3.43366H14.8333C16.0667 3.43366 17.0667 4.43366 17.0667 5.66699V7.08366C17.0667 7.25866 17.1917 7.59199 17.3083 7.72533L18.4417 9.04199C19.1417 9.85866 19.1417 11.1337 18.4417 11.9503L17.3083 13.267C17.1917 13.4003 17.0667 13.7337 17.0667 13.9087V15.3253C17.0667 16.5587 16.0667 17.5587 14.8333 17.5587H13.4167C13.2417 17.5587 12.9083 17.6837 12.775 17.792L11.4583 18.9253C11.05 19.2837 10.525 19.4587 10 19.4587ZM5.15 4.68366C4.60834 4.68366 4.16667 5.12533 4.16667 5.66699V7.09199C4.16667 7.56699 3.94167 8.17533 3.63334 8.53366L2.50834 9.85866C2.21667 10.2003 2.21667 10.792 2.50834 11.1337L3.63334 12.4587C3.94167 12.8253 4.16667 13.4253 4.16667 13.9003V15.3253C4.16667 15.867 4.60834 16.3087 5.15 16.3087H6.59167C7.075 16.3087 7.68334 16.5337 8.05 16.8503L9.36667 17.9837C9.70834 18.2753 10.3083 18.2753 10.65 17.9837L11.9667 16.8503C12.3333 16.542 12.9417 16.3087 13.425 16.3087H14.8417C15.3833 16.3087 15.825 15.867 15.825 15.3253V13.9087C15.825 13.4253 16.05 12.817 16.3667 12.4503L17.5 11.1337C17.7917 10.792 17.7917 10.192 17.5 9.85033L16.3667 8.53366C16.05 8.16699 15.825 7.55866 15.825 7.07533V5.66699C15.825 5.12533 15.3833 4.68366 14.8417 4.68366H13.425C12.9417 4.68366 12.3333 4.45866 11.9667 4.14199L10.65 3.00866C10.3083 2.71699 9.70834 2.71699 9.36667 3.00866L8.05 4.15033C7.68334 4.45866 7.06667 4.68366 6.59167 4.68366H5.15Z" fill="#04FF3B"/>
</svg>
